<svg width="96" height="96" viewBox="0 0 96 96" fill="none" xmlns="http://www.w3.org/2000/svg">
<path d="M31.0884 9.75596L35.3947 8.37992C39.43 7.09052 43.7412 9.17432 45.4696 13.2493L48.9084 21.3587C50.4072 24.8925 49.5756 29.0481 46.8524 31.6326L39.2752 38.8246C39.7428 43.1264 41.1888 47.3624 43.6132 51.5328C46.038 55.7028 49.066 59.162 52.6976 61.9104L61.7984 58.8756C65.248 57.7252 69.0048 59.0472 71.1208 62.156L76.05 69.398C78.51 73.0116 78.0676 77.9972 75.0152 81.0612L71.7444 84.3448C68.4888 87.6132 63.8388 88.7988 59.5372 87.4572C49.3816 84.2892 40.0444 74.8844 31.5253 59.2428C22.9938 43.578 19.9828 30.2876 22.4923 19.3716C23.5483 14.7783 26.8183 11.1204 31.0884 9.75596Z" fill="white"/>
</svg>
