<svg width="75" height="75" viewBox="0 0 75 75" fill="none" xmlns="http://www.w3.org/2000/svg">
<path d="M49.5434 19.2053C49.8053 19.4681 50.05 19.7464 50.2759 20.0384C50.8909 20.8333 51.3681 21.7291 51.6844 22.6887L53.0837 26.991C53.2006 27.3226 53.4178 27.6097 53.705 27.8128C53.9925 28.0159 54.3356 28.125 54.6875 28.125C55.0394 28.125 55.3825 28.0159 55.67 27.8128C55.9263 27.6316 56.1266 27.3835 56.25 27.0967C56.265 27.062 56.2788 27.0267 56.2913 26.991L57.6906 22.6887C58.1259 21.3807 58.8603 20.1921 59.8356 19.2175C60.8109 18.2428 62.0006 17.5089 63.3094 17.0741L67.615 15.6759C67.9469 15.5589 68.2344 15.3419 68.4375 15.0549C68.6409 14.7678 68.75 14.4249 68.75 14.0732C68.75 13.7216 68.6409 13.3787 68.4375 13.0916C68.2344 12.8046 67.9469 12.5876 67.615 12.4707L67.5291 12.4491L63.2234 11.0509C61.9144 10.6161 60.725 9.88219 59.7494 8.90753C58.7741 7.93291 58.0397 6.74434 57.6047 5.43634L56.2053 1.13404C56.0881 0.802444 55.8709 0.515297 55.5838 0.312185C55.2966 0.109073 54.9534 0 54.6013 0C54.2494 0 53.9062 0.109073 53.6191 0.312185C53.3319 0.515297 53.1147 0.802444 52.9975 1.13404L51.5981 5.43634L51.5625 5.54288C51.1322 6.79984 50.4241 7.9445 49.4906 8.89178C49.1584 9.22903 48.8006 9.53809 48.4209 9.81659L48.4178 9.8135C48.0881 10.0563 47.7425 10.2766 47.3831 10.4729C46.9616 10.7002 46.5209 10.8937 46.0656 11.0509L44.1881 11.6606L41.7516 12.4375C41.4253 12.5617 41.1428 12.779 40.9391 13.0625C40.7366 13.3354 40.6272 13.6655 40.6256 14.0042C40.6253 14.0201 40.625 14.0359 40.625 14.0518C40.625 14.0748 40.6256 14.0978 40.6262 14.1208C40.6316 14.4166 40.7206 14.7046 40.8828 14.9513C40.9003 14.9792 40.9184 15.0065 40.9375 15.0334C41.0878 15.2459 41.2847 15.42 41.5112 15.5436C41.5881 15.5869 41.6684 15.6246 41.7516 15.6562L46.0641 17.0625C46.8697 17.3273 47.6303 17.7058 48.3241 18.1842C48.7588 18.4864 49.1672 18.8279 49.5434 19.2053ZM71.9297 31.1394L74.3216 31.9162L74.3694 31.9281C74.5537 31.9931 74.7134 32.1138 74.8266 32.2731C74.9394 32.4325 75 32.6231 75 32.8184C75 33.0137 74.9394 33.2044 74.8266 33.3638C74.7134 33.5234 74.5537 33.6438 74.3694 33.7088L71.9775 34.4856C71.2503 34.7272 70.5894 35.135 70.0475 35.6763C69.5056 36.2178 69.0978 36.8781 68.8559 37.6047L68.0784 39.995C68.0134 40.1791 67.8928 40.3387 67.7331 40.4516C67.5738 40.5644 67.3831 40.625 67.1875 40.625C67.0841 40.625 66.9816 40.6081 66.8847 40.5753C66.7566 40.5475 66.6359 40.4897 66.5328 40.4062C66.3619 40.3069 66.2297 40.1528 66.1578 39.9688L65.8709 38.6866L65.5191 37.6047C65.2791 36.8759 64.8716 36.2131 64.3297 35.6697C63.7875 35.1259 63.1259 34.7166 62.3975 34.4738L60.0056 33.6969C59.8212 33.6319 59.6616 33.5112 59.5484 33.3519C59.4356 33.1925 59.375 33.0019 59.375 32.8066C59.375 32.6113 59.4356 32.4206 59.5484 32.2612C59.6616 32.1016 59.8212 31.9812 60.0056 31.9162L62.3975 31.1394C63.1159 30.8915 63.7672 30.481 64.3003 29.9399C64.8334 29.3988 65.2344 28.7418 65.4712 28.0202L66.2487 25.63C66.3138 25.4458 66.4344 25.2863 66.5938 25.1734C66.7534 25.0606 66.9441 25 67.1397 25C67.3353 25 67.5259 25.0606 67.6853 25.1734C67.845 25.2863 67.9656 25.4458 68.0306 25.63L68.8081 28.0202C69.0497 28.7469 69.4578 29.4072 69.9997 29.9486C70.5416 30.4901 71.2025 30.8978 71.9297 31.1394ZM46.875 39.0625C46.875 33.8847 42.6778 29.6875 37.5 29.6875C32.3222 29.6875 28.125 33.8847 28.125 39.0625C28.125 44.2403 32.3222 48.4375 37.5 48.4375C42.6778 48.4375 46.875 44.2403 46.875 39.0625ZM68.75 55.4688V43.4131C68.2241 43.6553 67.6491 43.7825 67.0641 43.7825C66.2234 43.7825 65.4041 43.52 64.7203 43.0312C64.0128 42.5278 63.4781 41.8184 63.1891 41L62.4391 38.625C62.3506 38.355 62.2006 38.1087 62.0016 37.9062C61.8 37.7209 61.5672 37.5728 61.3141 37.4688L58.8453 36.6875C58.05 36.4025 57.3622 35.8787 56.8766 35.1875C56.3825 34.5066 56.1197 33.685 56.1266 32.8438C56.1234 32.1178 56.3178 31.405 56.6891 30.7812C56.0319 31.1186 55.3025 31.2903 54.5641 31.2812C53.5697 31.2781 52.5997 30.973 51.7828 30.4062C50.9544 29.8078 50.3319 28.9671 50.0016 28L48.6266 23.6875C48.4194 23.0693 48.1131 22.4889 47.7203 21.9687L47.2516 21.4375C46.6209 20.8073 45.8497 20.3361 45.0016 20.0625L40.6266 18.625C39.6956 18.2745 38.8906 17.6543 38.3141 16.8437C37.7472 16.0267 37.4422 15.0568 37.4391 14.0625C37.4416 13.0584 37.7466 12.0783 38.3141 11.25C38.9222 10.4313 39.7597 9.81144 40.7203 9.46872L44.9703 8.09372C45.0387 8.07069 45.1072 8.04631 45.1747 8.02063C44.6375 7.89016 44.0809 7.82203 43.5147 7.82203H31.6325C29.1883 7.82203 26.9195 9.09128 25.6406 11.1741L22.9076 15.625H16.4062C10.7971 15.625 6.25 20.1721 6.25 25.7812V55.4688C6.25 61.0778 10.7971 65.625 16.4062 65.625H58.5938C64.2028 65.625 68.75 61.0778 68.75 55.4688ZM23.4375 39.0625C23.4375 31.2959 29.7335 25 37.5 25C45.2666 25 51.5625 31.2959 51.5625 39.0625C51.5625 46.8291 45.2666 53.125 37.5 53.125C29.7335 53.125 23.4375 46.8291 23.4375 39.0625Z" fill="#FF7A00"/>
</svg>
