<svg width="115" height="115" viewBox="0 0 115 115" fill="none" xmlns="http://www.w3.org/2000/svg">
<path d="M98.1797 12.5865C98.5061 14.5443 97.1835 16.3959 95.2257 16.7222L68.9223 21.1061L68.3521 23.9586H87.4478C89.4325 23.9586 91.0416 25.5676 91.0416 27.5523V46.719C91.0416 54.9165 84.7075 61.6349 76.6666 62.2468V64.6877C76.6666 74.0448 69.9611 81.8361 61.0937 83.5179V98.2293H73.0728C75.0575 98.2293 76.6666 99.8384 76.6666 101.823C76.6666 103.808 75.0575 105.417 73.0728 105.417H41.927C39.9422 105.417 38.3333 103.808 38.3333 101.823C38.3333 99.8384 39.9422 98.2293 41.927 98.2293H53.9062V83.5179C45.0385 81.8361 38.3333 74.0448 38.3333 64.6877V62.2468C30.2923 61.6349 23.9583 54.9165 23.9583 46.719V27.5523C23.9583 25.5676 25.5672 23.9586 27.552 23.9586H61.0218L62.3611 17.2642C62.6538 15.8001 63.8211 14.6696 65.294 14.4241L94.0441 9.63246C96.0019 9.30619 97.8534 10.6287 98.1797 12.5865ZM57.428 41.9273L59.5843 31.1461H31.1458V41.9273H57.428ZM83.8541 41.9273V31.1461H66.9146L64.7583 41.9273H83.8541Z" fill="white"/>
</svg>
