<svg width="77" height="77" viewBox="0 0 77 77" fill="none" xmlns="http://www.w3.org/2000/svg">
<g clip-path="url(#clip0_207_19)">
<path d="M38.5001 22.4583C44.0001 22.4583 44.9167 18.1596 44.9167 14.6158C44.9167 11.0719 42.5503 4.8125 38.5001 4.8125C34.4499 4.8125 32.0834 11.0719 32.0834 14.6158C32.0834 18.1596 33 22.4583 38.5001 22.4583ZM11.2292 32.8854C11.2292 28.8986 14.4612 25.6667 18.448 25.6667H58.5522C62.5388 25.6667 65.7709 28.8986 65.7709 32.8854V35.6927L54.1115 44.4373C52.8169 45.4082 51.0662 45.506 49.6718 44.686L43.1291 40.8373C40.2554 39.1468 36.6742 39.2206 33.8727 41.0282L28.2237 44.6728C26.906 45.5227 25.2136 45.5269 23.8918 44.6831L11.2292 36.6007V32.8854ZM11.2292 42.3099V59.3542H8.823C7.49407 59.3542 6.41675 60.4315 6.41675 61.7604C6.41675 63.0893 7.49407 64.1667 8.823 64.1667H68.1772C69.5061 64.1667 70.5834 63.0893 70.5834 61.7604C70.5834 60.4315 69.5061 59.3542 68.1772 59.3542H65.7709V41.7083L56.999 48.2873C54.1513 50.4231 50.2997 50.6387 47.2319 48.834L40.6891 44.9853C39.383 44.2169 37.7551 44.2506 36.4817 45.0723L30.8327 48.7166C27.9337 50.5871 24.2105 50.5961 21.3025 48.7397L11.2292 42.3099Z" fill="#FF7A00"/>
</g>
<defs>
<clipPath id="clip0_207_19">
<rect width="77" height="77" fill="white"/>
</clipPath>
</defs>
</svg>
