<svg width="118" height="22" viewBox="0 0 118 22" fill="none" xmlns="http://www.w3.org/2000/svg">
<path d="M11 0L13.4697 7.60081H21.4616L14.996 12.2984L17.4656 19.8992L11 15.2016L4.53436 19.8992L7.00402 12.2984L0.538379 7.60081H8.53035L11 0Z" fill="#FFD600"/>
<path d="M11 1.61804L12.9941 7.75532L13.1064 8.10081H13.4697H19.9228L14.7021 11.8939L14.4082 12.1074L14.5205 12.4529L16.5146 18.5902L11.2939 14.7971L11 14.5836L10.7061 14.7971L5.48542 18.5902L7.47954 12.4529L7.5918 12.1074L7.29791 11.8939L2.07722 8.10081H8.53035H8.89362L9.00587 7.75532L11 1.61804Z" stroke="black" stroke-opacity="0.3"/>
<path d="M35 0L37.4697 7.60081H45.4616L38.996 12.2984L41.4656 19.8992L35 15.2016L28.5344 19.8992L31.004 12.2984L24.5384 7.60081H32.5303L35 0Z" fill="#FFD600"/>
<path d="M35 1.61804L36.9941 7.75532L37.1064 8.10081H37.4697H43.9228L38.7021 11.8939L38.4082 12.1074L38.5205 12.4529L40.5146 18.5902L35.2939 14.7971L35 14.5836L34.7061 14.7971L29.4854 18.5902L31.4795 12.4529L31.5918 12.1074L31.2979 11.8939L26.0772 8.10081H32.5303H32.8936L33.0059 7.75532L35 1.61804Z" stroke="black" stroke-opacity="0.3"/>
<path d="M59 0L61.4697 7.60081H69.4616L62.996 12.2984L65.4656 19.8992L59 15.2016L52.5344 19.8992L55.004 12.2984L48.5384 7.60081H56.5303L59 0Z" fill="#FFD600"/>
<path d="M59 1.61804L60.9941 7.75532L61.1064 8.10081H61.4697H67.9228L62.7021 11.8939L62.4082 12.1074L62.5205 12.4529L64.5146 18.5902L59.2939 14.7971L59 14.5836L58.7061 14.7971L53.4854 18.5902L55.4795 12.4529L55.5918 12.1074L55.2979 11.8939L50.0772 8.10081H56.5303H56.8936L57.0059 7.75532L59 1.61804Z" stroke="black" stroke-opacity="0.3"/>
<path d="M83 0L85.4697 7.60081H93.4616L86.996 12.2984L89.4656 19.8992L83 15.2016L76.5344 19.8992L79.004 12.2984L72.5384 7.60081H80.5303L83 0Z" fill="#FFD600"/>
<path d="M83 1.61804L84.9941 7.75532L85.1064 8.10081H85.4697H91.9228L86.7021 11.8939L86.4082 12.1074L86.5205 12.4529L88.5146 18.5902L83.2939 14.7971L83 14.5836L82.7061 14.7971L77.4854 18.5902L79.4795 12.4529L79.5918 12.1074L79.2979 11.8939L74.0772 8.10081H80.5303H80.8936L81.0059 7.75532L83 1.61804Z" stroke="black" stroke-opacity="0.3"/>
<path d="M107 0L109.47 7.60081H117.462L110.996 12.2984L113.466 19.8992L107 15.2016L100.534 19.8992L103.004 12.2984L96.5384 7.60081H104.53L107 0Z" fill="#FFD600"/>
<path d="M107 1.61804L108.994 7.75532L109.106 8.10081H109.47H115.923L110.702 11.8939L110.408 12.1074L110.52 12.4529L112.515 18.5902L107.294 14.7971L107 14.5836L106.706 14.7971L101.485 18.5902L103.48 12.4529L103.592 12.1074L103.298 11.8939L98.0772 8.10081H104.53H104.894L105.006 7.75532L107 1.61804Z" stroke="black" stroke-opacity="0.3"/>
</svg>
