<svg width="111" height="111" viewBox="0 0 111 111" fill="none" xmlns="http://www.w3.org/2000/svg">
<path d="M48.7914 11.7097C52.6667 8.4418 58.3333 8.4418 62.2086 11.7098L93.4273 38.0357C95.7717 40.013 97.125 42.9239 97.125 45.991V89.049C97.125 93.5191 93.5013 97.1428 89.0312 97.1428H72.8438C68.3737 97.1428 64.75 93.5191 64.75 89.049V65.8912C64.75 65.2529 64.2325 64.7349 63.5938 64.7349H47.4062C46.7675 64.7349 46.25 65.2529 46.25 65.8912V89.049C46.25 93.5191 42.6263 97.1428 38.1562 97.1428H21.9688C17.4987 97.1428 13.875 93.5191 13.875 89.049V45.991C13.875 42.9239 15.228 40.013 17.5728 38.0357L48.7914 11.7097ZM57.7362 17.0133C56.4444 15.9239 54.5556 15.9239 53.2638 17.0133L22.0451 43.3393C21.2635 43.9983 20.8125 44.9687 20.8125 45.991V89.049C20.8125 89.6877 21.3302 90.2053 21.9688 90.2053H38.1562C38.7948 90.2053 39.3125 89.6877 39.3125 89.049V65.8912C39.3125 61.4211 42.9362 57.7974 47.4062 57.7974H63.5938C68.0638 57.7974 71.6875 61.4211 71.6875 65.8912V89.049C71.6875 89.6877 72.205 90.2053 72.8438 90.2053H89.0312C89.67 90.2053 90.1875 89.6877 90.1875 89.049V45.991C90.1875 44.9687 89.7366 43.9983 88.9549 43.3393L57.7362 17.0133Z" fill="white"/>
</svg>
