<svg width="84" height="84" viewBox="0 0 84 84" fill="none" xmlns="http://www.w3.org/2000/svg">
<path d="M28 42C35.7318 42 42 35.7318 42 28C42 20.268 35.7318 14 28 14C20.268 14 14 20.268 14 28C14 35.7318 20.268 42 28 42ZM59.5 42C65.2991 42 70 37.2992 70 31.5C70 25.701 65.2991 21 59.5 21C53.7009 21 49 25.701 49 31.5C49 37.2992 53.7009 42 59.5 42ZM14.875 49C10.5258 49 7 52.5259 7 56.875V57.75C7 57.75 7 73.5 28 73.5C49 73.5 49 57.75 49 57.75V56.875C49 52.5259 45.4741 49 41.125 49H14.875ZM59.5007 68.25C55.4015 68.25 52.2624 67.6161 49.8586 66.6456C51.0555 64.6334 51.7017 62.6997 52.0534 61.1926C52.2648 60.2865 52.3758 59.5095 52.4346 58.9236C52.464 58.6292 52.4804 58.38 52.4895 58.1829C52.494 58.0842 52.4969 57.9982 52.4986 57.9261L52.5004 57.8277L52.5007 57.786V57.7675V57.7584C52.5007 57.7472 52.5007 57.75 52.5007 57.75V56.875C52.5007 53.8227 51.2985 51.0513 49.3419 49.008C49.4606 49.0028 49.5803 49 49.7007 49H69.3007C73.5532 49 77.0007 52.4475 77.0007 56.7C77.0007 56.7 77.0007 68.25 59.5007 68.25Z" fill="#FF7A00"/>
</svg>
