<svg width="65" height="84" viewBox="0 0 65 84" fill="none" xmlns="http://www.w3.org/2000/svg">
<path d="M60.3571 0C62.738 0 64.7005 1.80152 64.9689 4.12244L65 4.66667V79.3333C65 81.9107 62.9214 84 60.3571 84C57.9763 84 56.0138 82.1987 55.7454 79.8775L55.7143 79.3333V56H51.0714C48.6906 56 46.728 54.1987 46.4597 51.8775L46.4286 51.3333V23.3333C46.4286 13.024 53.3929 0 60.3571 0ZM32.5 0C34.8809 0 36.8434 1.80152 37.1118 4.12244L37.1429 4.66667V28C37.1429 36.6968 31.226 44.0043 23.218 46.0777L23.2143 79.3333C23.2143 81.9107 21.1356 84 18.5714 84C16.1904 84 14.228 82.1987 13.9598 79.8775L13.9286 79.3333L13.9297 46.0787C6.21581 44.0837 0.441303 37.2325 0.0241424 28.9606L0 28V4.66667C0 2.08936 2.0787 0 4.64286 0C7.0239 0 8.9863 1.80152 9.25447 4.12244L9.28571 4.66667V28C9.28571 31.4545 11.1529 34.4708 13.9282 36.0845L13.9286 4.66667C13.9286 2.08936 16.0073 0 18.5714 0C20.9525 0 22.9149 1.80152 23.183 4.12244L23.2143 4.66667L23.2194 36.0817C25.7785 34.5917 27.5646 31.9081 27.8246 28.7885L27.8571 28V4.66667C27.8571 2.08936 29.9357 0 32.5 0Z" fill="white"/>
</svg>
