<svg width="91" height="111" viewBox="0 0 91 111" fill="none" xmlns="http://www.w3.org/2000/svg">
<path d="M67.6031 20.2903C66.2969 21.9908 66.626 24.4205 68.3389 25.7173C77.6381 32.7587 83.2 43.668 83.2 55.5001C83.2 74.7883 68.5058 90.669 49.6252 92.7089L53.1424 89.2147C54.6655 87.7025 54.6655 85.2512 53.1424 83.739C51.7577 82.3642 49.5908 82.2392 48.0641 83.3642L47.6268 83.739L37.2268 94.0646C35.842 95.4389 35.7162 97.5903 36.8493 99.1061L37.2268 99.5403L47.6268 109.866C49.1499 111.378 51.6194 111.378 53.1424 109.866C54.5267 108.492 54.6525 106.34 53.52 104.824L53.1424 104.39L49.2409 100.524C72.6201 98.6352 91 79.1988 91 55.5001C91 41.2263 84.2826 28.0505 73.0688 19.5596C71.3565 18.2628 68.9088 18.5899 67.6031 20.2903ZM37.8576 1.1341C36.3345 2.64623 36.3345 5.09794 37.8576 6.61007L41.7539 10.4765C18.3773 12.368 0 31.8032 0 55.5001C0 69.1531 6.14255 81.8169 16.5402 90.3443C18.2008 91.7062 20.659 91.4739 22.0308 89.8249C23.4025 88.1764 23.1683 85.7355 21.5077 84.3735C12.8852 77.302 7.8 66.8179 7.8 55.5001C7.8 36.2137 22.4917 20.3342 41.3696 18.2918L37.8576 21.7853C36.3345 23.2974 36.3345 25.7491 37.8576 27.2613C39.3806 28.7734 41.8501 28.7734 43.3732 27.2613L53.7732 16.9357C55.2963 15.4235 55.2963 12.9718 53.7732 11.4597L43.3732 1.1341C41.8501 -0.378033 39.3806 -0.378033 37.8576 1.1341Z" fill="white"/>
</svg>
