<svg width="45" height="32" viewBox="0 0 45 32" fill="none" xmlns="http://www.w3.org/2000/svg">
<path d="M2.25 27H42.75C43.9927 27 45 28.0073 45 29.25C45 30.4038 44.1315 31.3549 43.0124 31.4849L42.75 31.5H2.25C1.00737 31.5 0 30.4927 0 29.25C0 28.0962 0.86859 27.1451 1.9876 27.0151L2.25 27ZM2.24973 13.5L42.7498 13.495C43.9925 13.495 45 14.5021 45 15.7448C45 16.8986 44.1317 17.8499 43.0126 17.98L42.7502 17.9951L2.25027 18C1.00764 18.0002 0 16.9929 0 15.7502C0 14.5964 0.868365 13.6453 1.98733 13.5151L2.24973 13.5ZM2.25 0H42.75C43.9927 0 45 1.00737 45 2.25C45 3.40389 44.1315 4.3549 43.0124 4.48486L42.75 4.5H2.25C1.00737 4.5 0 3.49263 0 2.25C0 1.09611 0.86859 0.145103 1.9876 0.0151427L2.25 0Z" fill="white"/>
</svg>
