<svg width="74" height="74" viewBox="0 0 74 74" fill="none" xmlns="http://www.w3.org/2000/svg">
<path d="M31.4317 46.2537L31.4288 73.9963H20.3478L20.3506 46.2537H31.4317ZM56.4416 40.7037H43.4869C41.9545 40.7037 40.7121 41.9462 40.7121 43.4787V56.4361C40.7121 57.9686 41.9545 59.2111 43.4869 59.2111H56.4416C57.9741 59.2111 59.2165 57.9686 59.2165 56.4361V43.4787C59.2165 41.9462 57.9741 40.7037 56.4416 40.7037ZM53.6641 46.2537V53.6611H46.2607V46.2537H53.6641ZM22.8147 18.5074H5.55487L5.55524 22.8169C5.55524 27.1862 8.80197 30.7973 13.0144 31.3686L13.5945 31.4274L14.1854 31.4474C18.7531 31.4474 22.4921 27.8987 22.7957 23.4078L22.8156 22.8169L22.8147 18.5074ZM45.6244 18.5074H28.3645L28.3654 22.8169C28.3654 27.1862 31.6123 30.7973 35.8246 31.3686L36.4047 31.4274L36.9956 31.4474C41.5634 31.4474 45.3021 27.8987 45.6059 23.4078L45.6258 22.8169L45.6244 18.5074ZM68.4413 18.5074H51.1815L51.1841 22.8169C51.1841 27.1862 54.4311 30.7973 58.6434 31.3686L59.2235 31.4274L59.8144 31.4474C64.3822 31.4474 68.1209 27.8987 68.4247 23.4078L68.4447 22.8169L68.4413 18.5074ZM26.1246 5.55H16.007L9.13633 12.9574H23.8492L26.1246 5.55ZM42.0636 5.55H31.9334L29.6543 12.9574H44.3427L42.0636 5.55ZM57.9893 5.55H47.8724L50.1478 12.9574H64.8599L57.9893 5.55ZM0.746099 13.8451L12.7665 0.887667C13.2041 0.415991 13.7889 0.113997 14.4185 0.0264548L14.8008 0H59.1991C59.8425 0 60.4615 0.223369 60.954 0.625374L61.2333 0.887667L73.3403 13.9425L73.4535 14.0864C73.8302 14.5884 74 15.1576 74 15.7167L73.9945 22.8169C73.9945 26.4954 72.5937 29.8468 70.2968 32.3669L70.2939 71.225C70.2939 72.6299 69.2501 73.791 67.8956 73.9748L67.519 74L36.9822 73.9963L36.9848 43.4787C36.9848 41.9462 35.7424 40.7037 34.2099 40.7037H17.5757C16.0432 40.7037 14.8008 41.9462 14.8008 43.4787L14.798 73.9963L6.48072 74C5.07593 74 3.91491 72.9559 3.73118 71.6017L3.70583 71.225L3.70295 32.3669C1.55885 30.0144 0.19582 26.9377 0.0239246 23.5467L0.00546285 22.8169L0.00475981 15.8766C-0.025098 15.3685 0.0846021 14.8458 0.359686 14.3676L0.543865 14.0859L0.746099 13.8451Z" fill="white"/>
</svg>
